<svg width="18" height="17" viewBox="0 0 18 17" fill="none" xmlns="http://www.w3.org/2000/svg">
<path d="M6.71748 2.23183C7.43592 0.0206881 10.5641 0.0206866 11.2825 2.23183L11.5579 3.07935C11.8792 4.0682 12.8007 4.73771 13.8405 4.73771H14.7316C17.0565 4.73771 18.0232 7.71279 16.1423 9.07935L15.4213 9.60314C14.5802 10.2143 14.2282 11.2976 14.5495 12.2864L14.8249 13.1339C15.5433 15.3451 13.0126 17.1838 11.1316 15.8172L10.4107 15.2934C9.56953 14.6823 8.4305 14.6823 7.58933 15.2934L6.86839 15.8172C4.98747 17.1838 2.45672 15.3451 3.17517 13.1339L3.45054 12.2864C3.77184 11.2976 3.41986 10.2143 2.57869 9.60314L1.85775 9.07935C-0.0231628 7.71279 0.943498 4.73771 3.26843 4.73771H4.15956C5.19931 4.73771 6.1208 4.0682 6.4421 3.07935L6.71748 2.23183Z" fill="black"/>
</svg>
