<svg width="22" height="22" viewBox="0 0 22 22" fill="none" xmlns="http://www.w3.org/2000/svg">
<path d="M20.3406 8.98749L11.5906 1.03593C11.4293 0.888359 11.2186 0.806519 11 0.806519C10.7814 0.806519 10.5707 0.888359 10.4094 1.03593L1.65937 8.98749C1.57133 9.07065 1.50081 9.17058 1.45197 9.28141C1.40313 9.39223 1.37696 9.51171 1.375 9.6328V19.75C1.375 19.9821 1.46719 20.2046 1.63128 20.3687C1.79538 20.5328 2.01794 20.625 2.25 20.625H19.75C19.9821 20.625 20.2046 20.5328 20.3687 20.3687C20.5328 20.2046 20.625 19.9821 20.625 19.75V9.6328C20.623 9.51171 20.5969 9.39223 20.548 9.28141C20.4992 9.17058 20.4287 9.07065 20.3406 8.98749V8.98749Z" fill="#FF016B" stroke="#FF016B" stroke-linecap="round" stroke-linejoin="round"/>
</svg>
