<svg width="16" height="20" viewBox="0 0 16 20" fill="none" xmlns="http://www.w3.org/2000/svg">
<path d="M12.8913 2.99809C12.2211 2.34122 11.4249 1.82679 10.5506 1.48578C9.67629 1.14477 8.74202 0.984231 7.80405 1.01384C5.99896 1.07982 4.2874 1.83342 3.01987 3.1203C1.75234 4.40718 1.02475 6.12996 0.986117 7.93584C0.96147 9.47434 1.451 10.9771 2.37711 12.2058C2.50529 12.3981 5.82682 17.016 6.93216 18.548C7.04885 18.7093 7.20189 18.8407 7.37887 18.9318C7.55585 19.0229 7.7518 19.071 7.95084 19.0723H7.95664C8.15449 19.072 8.34953 19.0254 8.52611 18.9361C8.7027 18.8469 8.85592 18.7175 8.97351 18.5584C9.48742 17.8595 13.4932 12.3841 13.5988 12.251C13.6049 12.2437 13.6103 12.2364 13.6158 12.2284C14.5184 11.0125 15.0086 9.53984 15.0148 8.02554C15.0179 7.08769 14.8314 6.15889 14.4665 5.29494C14.1016 4.431 13.5658 3.64973 12.8913 2.99809Z" fill="url(#paint0_linear_1_148)" stroke="#3A3A3A"/>
<path d="M8 10.0001C8.9665 10.0001 9.75 9.21656 9.75 8.25006C9.75 7.28356 8.9665 6.50006 8 6.50006C7.0335 6.50006 6.25 7.28356 6.25 8.25006C6.25 9.21656 7.0335 10.0001 8 10.0001Z" fill="#F5F5F5"/>
<defs>
<linearGradient id="paint0_linear_1_148" x1="4.22282" y1="2.05241" x2="11.3725" y2="13.4679" gradientUnits="userSpaceOnUse">
<stop stop-color="#101010"/>
<stop offset="1" stop-color="#2F2F2F"/>
</linearGradient>
</defs>
</svg>
